<svg xmlns="http://www.w3.org/2000/svg" style="display: none;">
  
    <symbol id="icon-paint-bucket-streamline" viewBox="0 0 512 512">
      <path d="m480 235c0-26-18-48-43-53l0-22c0-88-71-160-160-160l-64 0c-88 0-160 72-160 160l0 22c-24 5-42 27-42 53c0 25 18 47 42 52l0 166c0 41 100 59 192 59c93 0 192-18 192-59l0-166c25-5 43-27 43-52z m-267-214l64 0c68 0 125 50 137 114c-35-19-104-28-169-28c-65 0-133 9-168 28c12-64 68-114 136-114z m32 107c111 0 171 25 171 37c0 13-60 38-171 38c-110 0-170-25-170-38c0-12 60-37 170-37z m-213 107c0-14 9-26 21-31l0 61c-12-5-21-16-21-30z m384 218c0 13-60 38-171 38c-110 0-170-25-170-38l0-259c34 20 104 30 170 30c67 0 137-10 171-30z m21-188l0-61c13 5 22 17 22 31c0 14-9 25-22 30z m-56-15c-6 2-13 4-21 6l-8 1l0 95c0 18-14 32-32 32c-8 0-17-3-23-9c-6-6-9-14-9-23c0-21 0-43 0-59l0-26l-64 0l0 42c0 12-10 22-21 22c-12 0-22-10-22-22l0-47l-10-1c-22-1-43-5-61-10c-6-2-12 1-14 7c-1 5 2 11 7 13c17 5 37 9 57 11l0 27c0 24 19 43 43 43c23 0 42-19 42-43l0-21l22 0l0 5c0 16 0 38 0 59c0 14 5 28 15 38c10 10 24 15 38 15c29 0 53-24 53-53l0-78c5-1 10-2 14-4c6-1 9-7 7-13c-2-6-7-9-13-7z"/>
    </symbol>
  
    <symbol id="icon-menu" viewBox="0 0 512 512">
      <path d="m410 230c7 0 13 3 18 8c5 5 7 11 7 18c0 7-2 13-7 18c-6 5-12 8-18 8c0 0-308 0-308 0c-6 0-12-3-18-8c-5-5-7-11-7-18c0-7 2-13 7-18c5-5 11-8 18-8c0 0 308 0 308 0m-308-51c-6 0-12-2-18-7c-5-6-7-12-7-18c0-7 2-13 7-18c5-5 11-8 18-8c0 0 308 0 308 0c7 0 13 3 18 8c5 5 7 11 7 18c0 6-2 12-7 18c-6 5-12 7-18 7c0 0-308 0-308 0m308 154c7 0 13 2 18 7c5 6 7 12 7 18c0 7-2 13-7 18c-6 5-12 8-18 8c0 0-308 0-308 0c-6 0-12-3-18-8c-5-5-7-11-7-18c0-6 2-12 7-18c5-5 11-7 18-7c0 0 308 0 308 0"/>
    </symbol>
  
    <symbol id="icon-monitor" viewBox="0 0 512 512">
      <path d="m461 31c14 0 26 5 36 15c10 10 15 22 15 36c0 0 0 282 0 282c0 14-5 27-15 39c-10 12-22 19-35 22c0 0-112 22-112 22c0 0 44 20 44 20c17 10 14 14-10 14c0 0-256 0-256 0c-33 0-28-9 16-26c0 0 19-8 19-8c0 0-113-22-113-22c-13-3-25-10-35-22c-10-12-15-25-15-39c0 0 0-282 0-282c0-14 5-26 15-36c11-10 23-15 36-15c0 0 410 0 410 0m0 330c0 0 0-284 0-284c0 0-410 0-410 0c0 0 0 284 0 284c0 0 410 0 410 0"/>
    </symbol>
  
    <symbol id="icon-screen" viewBox="0 0 512 512">
      <path d="m0 43l0 298l208 0l-37 64l170 0l-37-64l208 0l0-298z m469 256l-426 0l0-214l426 0z m-106 128l-214 0c-11 0-21 9-21 21c0 12 10 21 21 21l214 0c11 0 21-9 21-21c0-12-10-21-21-21z"/>
    </symbol>
  
    <symbol id="icon-cube" viewBox="0 0 512 512">
      <path d="m258 11l-237 116l0 235l235 139l235-139l0-235z m-23 428l-171-101l0-142l171 84z m-161-287l185-94l185 94l-185 91z m374 186l-192 114l0-165l192-91z"/>
    </symbol>
  
    <symbol id="icon-screen" viewBox="0 0 512 512">
      <path d="m0 43l0 298l208 0l-37 64l170 0l-37-64l208 0l0-298z m469 256l-426 0l0-214l426 0z m-106 128l-214 0c-11 0-21 9-21 21c0 12 10 21 21 21l214 0c11 0 21-9 21-21c0-12-10-21-21-21z"/>
    </symbol>
  
    <symbol id="icon-crop" viewBox="0 0 512 512">
      <path d="m405 277l0-170l-170 0l0-86l-128 0l0 86l-86 0l0 128l86 0l0 170l170 0l0 86l128 0l0-86l86 0l0-128z m-192-128l150 0l0 150l-43 0l0-107l-107 0z m64 86l0 42l-42 0l0-42z m-149-43l-64 0l0-43l64 0z m235 256l-43 0l0-64l43 0z m85-85l-299 0l0-299l43 0l0 256l256 0z"/>
    </symbol>
  
    <symbol id="icon-book-open" viewBox="0 0 512 512">
      <path d="m212 200c-36-28-80-58-149-63z m0 64c-36-28-80-58-149-63z m-64 23c-24-11-51-20-85-22z m130-87l150-63c-69 5-113 35-150 63z m0 64l150-63c-69 5-113 35-150 63z m150 1c-34 2-62 11-85 22z m42-257c-93 0-178 43-222 78l-6 0c-43-35-128-78-222-78l-20 0l0 405l20 0c69 0 146 27 180 52c10 8 19 16 27 24l17 16l2 0l17-16c9-8 18-16 28-24c34-25 110-52 179-52l21 0l0-405z m-235 430c0-2-6-5-8-7c-36-27-120-55-184-60l0-320c85 7 155 48 185 78l6 7l1 0z m213-67c-64 5-148 33-184 60c-3 2-8 5-8 7l0-302l1 0l6-7c30-30 100-71 185-78z"/>
    </symbol>
  
    <symbol id="icon-home" viewBox="0 0 512 512">
      <path d="m448 163l0-142l-107 0l0 64l-85-64l-256 192l64 0l0 278l384 0l0-278l64 0z m-192 285l-85 0l0-171l85 0z m149 0l-128 0l0-192l-128 0l0 192l-42 0l0-256l149-107l149 107z m0-339l-21-14l0-31l21 0z m-21 190l-85 0l0 85l85 0z m-21 64l-43 0l0-43l43 0z m-128 0l-22 0l0 21l22 0z"/>
    </symbol>
  
    <symbol id="icon-paintcan" viewBox="0 0 512 512">
      <path d="m256 0c-106 0-192 86-192 192l0 32c0 18 14 32 32 32l0 160c0 35 72 64 160 64 88 0 160-29 160-64l0-160c18 0 32-14 32-32l0-32c0-106-86-192-192-192z m96 320l0 16c0 9-7 16-16 16-9 0-16-7-16-16l0-16c0-9-7-16-16-16-9 0-16 7-16 16l0 80c0 9-7 16-16 16-9 0-16-7-16-16l0-64c0-9-7-16-16-16-9 0-16 7-16 16l0 16c0 18-14 32-32 32-18 0-32-14-32-32l0-32c-18 0-32-14-32-32l0-58c29 16 76 26 128 26 52 0 99-10 128-26l0 58c0 18-14 32-32 32z m-96-96c-54 0-100-13-119-32 19-19 65-32 119-32 54 0 100 13 119 32-19 19-65 32-119 32z m0-96c-88 0-160 29-160 64 0 0 0 0 0 0 0-88 72-160 160-160 88 0 160 72 160 160 0-35-72-64-160-64z"/>
    </symbol>
  
    <symbol id="icon-three-bars" viewBox="0 0 512 512">
      <path d="m64 96l0 64 384 0 0-64z m0 192l384 0 0-64-384 0z m0 128l384 0 0-64-384 0z"/>
    </symbol>
  
    <symbol id="icon-person" viewBox="0 0 512 512">
      <path d="m352 96c0-53-43-96-96-96-53 0-96 43-96 96 0 53 43 96 96 96 53 0 96-43 96-96z m-96 64c-35 0-64-29-64-64 0-35 29-64 64-64 35 0 64 29 64 64 0 35-29 64-64 64z m64 32l-128 0c-35 0-64 29-64 64l0 64c0 35 29 64 64 64l0 128 128 0 0-128c35 0 64-29 64-64l0-64c0-35-29-64-64-64z m32 128c0 18-14 32-32 32l0-64-32 0 0 192-64 0 0-192-32 0 0 64c-18 0-32-14-32-32l0-64c0-18 14-32 32-32l128 0c18 0 32 14 32 32z"/>
    </symbol>
  
    <symbol id="icon-database" viewBox="0 0 512 512">
      <path d="m256 480c-106 0-192-29-192-64 0-19 0-40 0-64 0-6 3-11 7-16 21 28 96 48 185 48 89 0 164-20 185-48 4 5 7 10 7 16 0 19 0 38 0 64 0 35-86 64-192 64z m0-128c-106 0-192-29-192-64 0-19 0-40 0-64 0-3 1-7 3-10 1-2 2-4 4-6 21 28 96 48 185 48 89 0 164-20 185-48 2 2 3 4 4 6 2 3 3 7 3 10 0 19 0 38 0 64 0 35-86 64-192 64z m0-128c-106 0-192-29-192-64 0-10 0-21 0-32 0-10 0-21 0-32 0-35 86-64 192-64 106 0 192 29 192 64 0 10 0 21 0 32 0 10 0 20 0 32 0 35-86 64-192 64z m0-160c-71 0-128 14-128 32 0 18 57 32 128 32 71 0 128-14 128-32 0-18-57-32-128-32z"/>
    </symbol>
  
    <symbol id="icon-repo" viewBox="0 0 512 512">
      <path d="m224 128l-32 0 0 32 32 0z m0-64l-32 0 0 32 32 0z m192-64c-16 0-304 0-320 0-16 0-32 16-32 32 0 16 0 368 0 384 0 16 16 32 32 32 16 0 64 0 64 0l0 64 48-48 48 48 0-64c0 0 144 0 160 0 16 0 32-16 32-32 0-16 0-368 0-384 0-16-16-32-32-32z m0 400c0 8-7 16-16 16-8 0-144 0-144 0l0-32-96 0 0 32c0 0-39 0-48 0-8 0-16-8-16-16 0-7 0-48 0-48l320 0c0 0 0 40 0 48z m0-80l-256 0 0-288 257 0z m-192-64l-32 0 0 32 32 0z m0-64l-32 0 0 32 32 0z"/>
    </symbol>
  
    <symbol id="icon-mark-github" viewBox="0 0 512 512">
      <path d="m256 0c-141 0-256 115-256 256 0 113 73 209 175 243 13 2 18-6 18-12 0-6-1-27-1-48-71 15-86-30-86-30-12-30-28-38-28-38-24-16 1-15 1-15 26 2 40 26 40 26 22 39 59 28 74 21 2-16 9-27 16-34-57-6-116-28-116-126 0-28 10-51 26-69-3-7-11-33 3-68 0 0 21-7 70 26 20-5 42-8 64-8 22 0 44 3 64 8 49-33 70-26 70-26 14 35 6 61 3 68 16 18 26 41 26 69 0 98-60 120-117 126 10 8 18 24 18 47 0 35-1 62-1 71 0 6 5 14 18 12 102-34 175-130 175-243 0-141-115-256-256-256z"/>
    </symbol>
  
    <symbol id="icon-cube" viewBox="0 0 512 512">
      <path d="m258 11l-237 116l0 235l235 139l235-139l0-235z m-23 428l-171-101l0-142l171 84z m-161-287l185-94l185 94l-185 91z m374 186l-192 114l0-165l192-91z"/>
    </symbol>
  
    <symbol id="icon-github" viewBox="0 0 512 512">
      <path d="m338 289c9 0 16 4 23 13c6 9 10 20 10 33c0 13-4 24-10 33c-7 8-14 13-23 13c-10 0-18-5-24-13c-7-9-10-20-10-33c0-13 3-24 10-33c6-9 14-13 24-13m116-120c25 27 38 60 38 99c0 26-3 48-9 68c-6 21-13 37-22 50c-9 12-20 23-33 33c-13 9-25 16-36 21c-11 4-23 8-37 10c-14 2-25 4-32 4c-7 0-15 1-23 1c-2 0-8 0-18 0c-11 1-19 1-26 1c-7 0-15 0-26-1c-10 0-16 0-18 0c-8 0-16-1-23-1c-7 0-18-2-32-4c-14-2-26-6-37-10c-11-5-23-12-36-21c-13-10-24-21-33-33c-9-13-16-29-22-50c-6-20-9-42-9-68c0-39 13-72 38-99c-2-1-3-15 0-41c2-26 8-50 17-72c31 4 70 21 116 54c16-5 38-7 65-7c29 0 50 2 65 7c21-15 41-26 60-35c20-9 34-14 43-16c0 0 13-3 13-3c9 22 15 46 17 72c3 26 2 40 0 41m-197 263c57 0 100-7 129-20c29-14 43-42 43-84c0-25-9-45-28-62c-9-9-20-14-33-16c-12-2-32-2-58 0c-26 2-43 3-53 3c0 0-1 0-1 0c0 0-1 0-1 0c-11 0-25-1-43-2c-17-1-31-2-40-3c-10 0-21 1-33 4c-11 3-21 7-28 14c-18 16-27 36-27 62c0 42 14 70 43 84c29 13 71 20 128 20c0 0 2 0 2 0m-82-143c9 0 17 4 23 13c7 9 10 20 10 33c0 13-3 24-10 33c-6 8-14 13-23 13c-9 0-17-5-24-13c-6-9-10-20-10-33c0-13 4-24 10-33c7-9 15-13 24-13"/>
    </symbol>
  
    <symbol id="icon-book-close" viewBox="0 0 512 512">
      <path d="m190 20l-92 68l-13-3l0 363l278 64l0-363l-209-49l45-35l206 42l0 170l22 0l0-209z"/>
    </symbol>
  
    <symbol id="icon-book-open" viewBox="0 0 512 512">
      <path d="m212 200c-36-28-80-58-149-63z m0 64c-36-28-80-58-149-63z m-64 23c-24-11-51-20-85-22z m130-87l150-63c-69 5-113 35-150 63z m0 64l150-63c-69 5-113 35-150 63z m150 1c-34 2-62 11-85 22z m42-257c-93 0-178 43-222 78l-6 0c-43-35-128-78-222-78l-20 0l0 405l20 0c69 0 146 27 180 52c10 8 19 16 27 24l17 16l2 0l17-16c9-8 18-16 28-24c34-25 110-52 179-52l21 0l0-405z m-235 430c0-2-6-5-8-7c-36-27-120-55-184-60l0-320c85 7 155 48 185 78l6 7l1 0z m213-67c-64 5-148 33-184 60c-3 2-8 5-8 7l0-302l1 0l6-7c30-30 100-71 185-78z"/>
    </symbol>
  
</svg>
