<svg xmlns="http://www.w3.org/2000/svg" style="display: none;">
  
    <symbol id="icon-screen" viewBox="0 0 512 512">
      <path d="m0 43l0 298l208 0l-37 64l170 0l-37-64l208 0l0-298z m469 256l-426 0l0-214l426 0z m-106 128l-214 0c-11 0-21 9-21 21c0 12 10 21 21 21l214 0c11 0 21-9 21-21c0-12-10-21-21-21z"/>
    </symbol>
  
    <symbol id="icon-crop" viewBox="0 0 512 512">
      <path d="m405 277l0-170l-170 0l0-86l-128 0l0 86l-86 0l0 128l86 0l0 170l170 0l0 86l128 0l0-86l86 0l0-128z m-192-128l150 0l0 150l-43 0l0-107l-107 0z m64 86l0 42l-42 0l0-42z m-149-43l-64 0l0-43l64 0z m235 256l-43 0l0-64l43 0z m85-85l-299 0l0-299l43 0l0 256l256 0z"/>
    </symbol>
  
    <symbol id="icon-database" viewBox="0 0 512 512">
      <path d="m256 480c-106 0-192-29-192-64 0-19 0-40 0-64 0-6 3-11 7-16 21 28 96 48 185 48 89 0 164-20 185-48 4 5 7 10 7 16 0 19 0 38 0 64 0 35-86 64-192 64z m0-128c-106 0-192-29-192-64 0-19 0-40 0-64 0-3 1-7 3-10 1-2 2-4 4-6 21 28 96 48 185 48 89 0 164-20 185-48 2 2 3 4 4 6 2 3 3 7 3 10 0 19 0 38 0 64 0 35-86 64-192 64z m0-128c-106 0-192-29-192-64 0-10 0-21 0-32 0-10 0-21 0-32 0-35 86-64 192-64 106 0 192 29 192 64 0 10 0 21 0 32 0 10 0 20 0 32 0 35-86 64-192 64z m0-160c-71 0-128 14-128 32 0 18 57 32 128 32 71 0 128-14 128-32 0-18-57-32-128-32z"/>
    </symbol>
  
    <symbol id="icon-paintcan" viewBox="0 0 512 512">
      <path d="m256 0c-106 0-192 86-192 192l0 32c0 18 14 32 32 32l0 160c0 35 72 64 160 64 88 0 160-29 160-64l0-160c18 0 32-14 32-32l0-32c0-106-86-192-192-192z m96 320l0 16c0 9-7 16-16 16-9 0-16-7-16-16l0-16c0-9-7-16-16-16-9 0-16 7-16 16l0 80c0 9-7 16-16 16-9 0-16-7-16-16l0-64c0-9-7-16-16-16-9 0-16 7-16 16l0 16c0 18-14 32-32 32-18 0-32-14-32-32l0-32c-18 0-32-14-32-32l0-58c29 16 76 26 128 26 52 0 99-10 128-26l0 58c0 18-14 32-32 32z m-96-96c-54 0-100-13-119-32 19-19 65-32 119-32 54 0 100 13 119 32-19 19-65 32-119 32z m0-96c-88 0-160 29-160 64 0 0 0 0 0 0 0-88 72-160 160-160 88 0 160 72 160 160 0-35-72-64-160-64z"/>
    </symbol>
  
    <symbol id="icon-three-bars" viewBox="0 0 512 512">
      <path d="m64 96l0 64 384 0 0-64z m0 192l384 0 0-64-384 0z m0 128l384 0 0-64-384 0z"/>
    </symbol>
  
    <symbol id="icon-person" viewBox="0 0 512 512">
      <path d="m352 96c0-53-43-96-96-96-53 0-96 43-96 96 0 53 43 96 96 96 53 0 96-43 96-96z m-96 64c-35 0-64-29-64-64 0-35 29-64 64-64 35 0 64 29 64 64 0 35-29 64-64 64z m64 32l-128 0c-35 0-64 29-64 64l0 64c0 35 29 64 64 64l0 128 128 0 0-128c35 0 64-29 64-64l0-64c0-35-29-64-64-64z m32 128c0 18-14 32-32 32l0-64-32 0 0 192-64 0 0-192-32 0 0 64c-18 0-32-14-32-32l0-64c0-18 14-32 32-32l128 0c18 0 32 14 32 32z"/>
    </symbol>
  
    <symbol id="icon-mark-github" viewBox="0 0 512 512">
      <path d="m256 0c-141 0-256 115-256 256 0 113 73 209 175 243 13 2 18-6 18-12 0-6-1-27-1-48-71 15-86-30-86-30-12-30-28-38-28-38-24-16 1-15 1-15 26 2 40 26 40 26 22 39 59 28 74 21 2-16 9-27 16-34-57-6-116-28-116-126 0-28 10-51 26-69-3-7-11-33 3-68 0 0 21-7 70 26 20-5 42-8 64-8 22 0 44 3 64 8 49-33 70-26 70-26 14 35 6 61 3 68 16 18 26 41 26 69 0 98-60 120-117 126 10 8 18 24 18 47 0 35-1 62-1 71 0 6 5 14 18 12 102-34 175-130 175-243 0-141-115-256-256-256z"/>
    </symbol>
  
    <symbol id="icon-octoface" viewBox="0 0 512 512">
      <path d="m470 139c5-10 18-51-4-106 0 0-34-11-110 41-32-8-66-10-100-10-34 0-68 2-100 10-76-52-110-41-110-41-22 55-9 96-4 106-26 28-42 63-42 107 0 165 107 202 255 202 149 0 257-37 257-202 0-44-16-79-42-107z m-214 278c-106 0-191-5-191-108 0-24 12-47 32-66 35-31 93-15 159-15 66 0 124-16 159 15 20 19 32 42 32 66 0 103-85 108-191 108z m-80-161c-22 0-39 26-39 57 0 32 17 57 39 57 21 0 38-25 38-57 0-31-17-57-38-57z m160 0c-21 0-38 26-38 57 0 32 17 57 38 57 22 0 39-25 39-57 0-31-17-57-39-57z"/>
    </symbol>
  
    <symbol id="icon-check" viewBox="0 0 512 512">
      <path d="m384 96l-192 192-64-64-64 64 128 128 256-256z"/>
    </symbol>
  
    <symbol id="icon-cc" viewBox="0 0 512 512">
      <path d="m253 10c68 0 126 23 174 70c48 47 73 104 75 172c0 68-23 127-70 175c-47 48-105 73-173 75c-68 0-126-23-175-70c-48-48-73-105-74-173c-1-68 22-127 69-175c48-48 106-73 174-74m6 440c53-1 99-21 136-59c38-38 56-84 56-138c-1-54-21-100-59-137c-39-37-85-55-138-55c-54 1-100 21-137 59c-37 38-55 84-55 138c1 54 21 100 59 137c38 37 84 55 138 55m-63-153c13 0 23-7 29-21c0 0 29 16 29 16c-7 12-15 21-26 26c-11 7-23 11-35 11c-22 0-39-7-52-20c-13-12-19-30-19-53c0-23 6-41 19-54c13-13 30-20 49-20c30 0 51 12 64 34c0 0-32 16-32 16c-3-6-7-11-12-14c-5-3-10-4-14-4c-21 0-31 14-31 42c0 13 2 23 7 30c6 7 14 11 24 11m136 0c14 0 24-7 28-21c0 0 30 16 30 16c-6 11-15 20-25 26c-11 7-23 11-36 11c-22 0-39-7-51-20c-13-12-20-30-20-53c0-22 7-40 20-54c12-13 29-20 50-20c28 0 49 12 61 34c0 0-31 16-31 16c-3-6-7-11-12-14c-5-3-9-4-14-4c-21 0-32 14-32 42c0 12 3 22 8 30c6 7 14 11 24 11"/>
    </symbol>
  
    <symbol id="icon-cc-by" viewBox="0 0 512 512">
      <path d="m256 166c-23 0-34-12-34-35c0-23 11-35 34-35c23 0 35 12 35 35c0 23-12 35-35 35m50 13c5 0 9 2 11 4c4 4 6 7 6 12c0 0 0 100 0 100c0 0-29 0-29 0c0 0 0 120 0 120c0 0-76 0-76 0c0 0 0-120 0-120c0 0-29 0-29 0c0 0 0-100 0-100c0-5 2-8 6-12c2-2 6-4 11-4c0 0 100 0 100 0m-50-169c68 0 126 24 174 72c48 48 72 106 72 174c0 68-24 125-72 174c-48 48-106 72-174 72c-68 0-125-24-174-72c-48-49-72-106-72-174c0-68 24-126 72-174c49-48 106-72 174-72m0 447c55 0 103-20 142-59c39-39 59-87 59-142c0-56-20-103-59-142c-39-39-87-59-142-59c-55 0-103 20-142 59c-39 39-59 86-59 142c0 55 20 103 59 142c39 39 87 59 142 59"/>
    </symbol>
  
    <symbol id="icon-arrow-right" viewBox="0 0 512 512">
      <path d="m107 299l192 0l0 96l138-139l-138-139l0 96l-193 0c-23 0-42 19-42 43c0 24 20 43 43 43z"/>
    </symbol>
  
    <symbol id="icon-arrow-left" viewBox="0 0 512 512">
      <path d="m384 213l-192 0l0-96l-139 139l139 139l0-96l193 0c23 0 42-19 42-43c0-24-20-43-43-43z"/>
    </symbol>
  
    <symbol id="icon-book-close" viewBox="0 0 512 512">
      <path d="m190 20l-92 68l-13-3l0 363l278 64l0-363l-209-49l45-35l206 42l0 170l22 0l0-209z"/>
    </symbol>
  
    <symbol id="icon-arrow-up-1" viewBox="0 0 512 512">
      <path d="m299 405l0-192l96 0l-139-138l-139 138l96 0l0 193c0 23 19 42 43 42c24 0 43-20 43-43z"/>
    </symbol>
  
    <symbol id="icon-check-1" viewBox="0 0 512 512">
      <path d="m212 435c-11 0-21-5-28-14c0 0-92-121-92-121c-6-8-8-17-6-27c1-9 5-17 13-23c7-6 16-9 26-7c10 1 18 6 24 14c0 0 60 79 60 79c0 0 152-243 152-243c5-8 13-13 22-15c9-2 18-1 27 4c8 5 13 13 15 22c3 9 1 18-4 27c0 0-179 287-179 287c-7 11-16 16-28 16c0 0-2 1-2 1"/>
    </symbol>
  
    <symbol id="icon-playback-play" viewBox="0 0 512 512">
      <path d="m128 96l256 160-256 160z"/>
    </symbol>
  
    <symbol id="icon-playback-pause" viewBox="0 0 512 512">
      <path d="m128 416l96 0 0-320-96 0z m160-320l0 320 96 0 0-320z"/>
    </symbol>
  
    <symbol id="icon-playback-fast-forward" viewBox="0 0 512 512">
      <path d="m64 384l192-128-192-128z m384-128l-192-128 0 256z"/>
    </symbol>
  
    <symbol id="icon-playback-rewind" viewBox="0 0 512 512">
      <path d="m256 256l192 128 0-256z m-192 0l192 128 0-256z"/>
    </symbol>
  
</svg>
