<svg xmlns="http://www.w3.org/2000/svg" style="display: none;">
  
    <symbol id="icon-ibook-laptop" viewBox="0 0 512 512">
      <path d="m427 64l-342 0l0 213l342 0z m-22 192l-298 0l0-171l298 0z m-50 171l-16-64l-166 0l-16 64z m-165-43l132 0l6 21l-144 0z m279-87l0-233c0-24-19-43-42-43l-342 0c-23 0-42 19-42 43l0 244l-43 148l0 13c0 24 19 43 43 43l426 0c24 0 43-19 43-43l0-10z m-384-254l342 0c11 0 21 9 21 21l0 235l-384 0l0-235c0-12 10-21 21-21z m-24 277l393 0l33 128l-462 0z m408 171l-426 0c-12 0-22-10-22-22l470 0c0 12-10 22-22 22z"/>
    </symbol>
  
    <symbol id="icon-design-pencil-rule-streamline" viewBox="0 0 512 512">
      <path d="m459 0l-150 0c-6 0-10 5-10 11l0 490c0 6 4 11 10 11l150 0c6 0 10-5 10-11l0-490c0-6-4-11-10-11z m-11 491l-128 0l0-64l43 0l0-22l-43 0l0-42l43 0l0-22l-43 0l0-42l43 0l0-22l-43 0l0-42l43 0l0-22l-43 0l0-42l43 0l0-22l-43 0l0-42l43 0l0-22l-43 0l0-64l128 0z m-300-465c-4-6-14-6-18 0l-64 96c-1 2-2 4-2 6l0 309c0 30 24 54 53 54l43 0c29 0 53-24 53-54l0-309c0-2 0-4-1-6z m-9 141c3 3 6 6 10 8l0 188l-21 0l0-188c4-2 8-5 11-8z m-32 196l-22 0l0-188c7 4 14 6 22 6z m-22 21l107 0l0 21l-107 0z m86-21l0-182c7 0 15-2 21-6l0 188z m-32-312l15 24l-31 0z m-54 80l24-35l60 0l23 35l0 8c0 11-10 21-21 21c-12 0-22-10-22-21c0-6-4-11-10-11c-6 0-11 5-11 11c0 11-10 21-21 21c-12 0-22-10-22-21z m75 338l-43 0c-17 0-32-14-32-32l0-10l107 0l0 10c0 18-14 32-32 32z"/>
    </symbol>
  
    <symbol id="icon-paint-bucket-streamline" viewBox="0 0 512 512">
      <path d="m480 235c0-26-18-48-43-53l0-22c0-88-71-160-160-160l-64 0c-88 0-160 72-160 160l0 22c-24 5-42 27-42 53c0 25 18 47 42 52l0 166c0 41 100 59 192 59c93 0 192-18 192-59l0-166c25-5 43-27 43-52z m-267-214l64 0c68 0 125 50 137 114c-35-19-104-28-169-28c-65 0-133 9-168 28c12-64 68-114 136-114z m32 107c111 0 171 25 171 37c0 13-60 38-171 38c-110 0-170-25-170-38c0-12 60-37 170-37z m-213 107c0-14 9-26 21-31l0 61c-12-5-21-16-21-30z m384 218c0 13-60 38-171 38c-110 0-170-25-170-38l0-259c34 20 104 30 170 30c67 0 137-10 171-30z m21-188l0-61c13 5 22 17 22 31c0 14-9 25-22 30z m-56-15c-6 2-13 4-21 6l-8 1l0 95c0 18-14 32-32 32c-8 0-17-3-23-9c-6-6-9-14-9-23c0-21 0-43 0-59l0-26l-64 0l0 42c0 12-10 22-21 22c-12 0-22-10-22-22l0-47l-10-1c-22-1-43-5-61-10c-6-2-12 1-14 7c-1 5 2 11 7 13c17 5 37 9 57 11l0 27c0 24 19 43 43 43c23 0 42-19 42-43l0-21l22 0l0 5c0 16 0 38 0 59c0 14 5 28 15 38c10 10 24 15 38 15c29 0 53-24 53-53l0-78c5-1 10-2 14-4c6-1 9-7 7-13c-2-6-7-9-13-7z"/>
    </symbol>
  
    <symbol id="icon-book-read-streamline" viewBox="0 0 512 512">
      <path d="m475 56c-3-2-7-3-10-1l-220 104l-219-104c-3-2-7-1-10 1c-3 1-5 5-5 9l0 330c0 4 2 8 6 10l224 106c1 1 3 2 4 2c2 0 3-1 5-2l224-106c4-2 6-6 6-10l0-330c0-4-2-8-5-9z m-443 25l203 97l0 307l-203-97z m427 307l-203 97l0-307l203-97z m-400-346l186 88l186-88c6-3 8-9 5-15c-2-5-9-7-14-5l-177 85l-176-85c-6-2-12 0-15 5c-2 6 0 12 5 15z"/>
    </symbol>
  
    <symbol id="icon-chef-food-restaurant-streamline" viewBox="0 0 512 512">
      <path d="m384 512l-256 0c-6 0-10-4-11-10l-20-268c-43-5-76-41-76-85c0-47 40-87 86-87c10 0 19 2 28 6c15-41 62-68 121-68c56 0 95 23 119 69c9-4 20-7 30-7c46 0 86 40 86 87c0 44-33 80-76 85l-20 268c-1 6-5 10-11 10z m-246-21l236 0l21-268c0-5 5-10 10-10c36 0 64-28 64-64c0-38-34-65-64-65c-10 0-20 3-29 8c-3 2-6 3-9 2c-3-1-5-3-7-6c-20-46-53-67-104-67c-55 0-97 26-104 64c0 4-3 7-6 8c-3 2-7 1-10-1c-9-5-19-8-29-8c-30 0-64 27-64 65c0 36 28 64 64 64c5 0 10 5 10 10z m253-64l-270 0c-6 0-10-5-10-11c0-6 4-11 10-11l270 0c6 0 10 5 10 11c0 6-4 11-10 11z m-188 0c-6 0-11-5-11-11l0-85c0-6 5-11 11-11c6 0 10 5 10 11l0 85c0 6-4 11-10 11z m53 0c-6 0-11-5-11-11l0-107c0-6 5-10 11-10c6 0 11 4 11 10l0 107c0 6-5 11-11 11z m53 0c-6 0-10-5-10-11l0-85c0-6 4-11 10-11c6 0 11 5 11 11l0 85c0 6-5 11-11 11z"/>
    </symbol>
  
    <symbol id="icon-computer-macintosh-vintage" viewBox="0 0 512 512">
      <path d="m331 43l-171 0c-18 0-32 14-32 32l0 128c0 17 14 32 32 32l171 0c17 0 32-15 32-32l0-128c0-18-15-32-32-32z m10 160c0 6-4 10-10 10l-171 0c-6 0-11-4-11-10l0-128c0-6 5-11 11-11l171 0c6 0 10 5 10 11z m-10 53l-64 0c-6 0-11 5-11 11c0 6 5 10 11 10l64 0c6 0 10-4 10-10c0-6-4-11-10-11z m178 195l-46-46c27-2 49-25 49-53c0-29-24-53-53-53l-54 0l0-224c0-42-33-75-74-75l-171 0c-41 0-75 33-75 75l0 256c0 17 15 32 32 32l256 0c18 0 32-15 32-32l0-11l54 0c17 0 32 14 32 32c0 18-15 32-32 32l-384 0c-3 0-6 1-8 3l-64 64c-1 1-2 2-2 4c-1 1-1 2-1 4l0 42c0 6 5 11 11 11l490 0c6 0 11-5 11-11l0-42c0-2 0-3-1-4c0-2-1-3-2-4z m-125-120c0 6-5 10-11 10l-256 0c-6 0-10-4-10-10l0-256c0-30 24-54 53-54l171 0c29 0 53 24 53 54z m-305 74l354 0l43 43l-440 0z m-58 86l0-22l470 0l0 22z m118-64c0 6-5 10-11 10c-6 0-11-4-11-10c0-6 5-11 11-11c6 0 11 5 11 11z m64 0c0 6-5 10-11 10c-6 0-11-4-11-10c0-6 5-11 11-11c6 0 11 5 11 11z m64 0c0 6-5 10-11 10c-6 0-11-4-11-10c0-6 5-11 11-11c6 0 11 5 11 11z m64 0c0 6-5 10-11 10c-6 0-11-4-11-10c0-6 5-11 11-11c6 0 11 5 11 11z m64 0c0 6-5 10-11 10c-6 0-11-4-11-10c0-6 5-11 11-11c6 0 11 5 11 11z"/>
    </symbol>
  
    <symbol id="icon-paintcan" viewBox="0 0 512 512">
      <path d="m256 0c-106 0-192 86-192 192l0 32c0 18 14 32 32 32l0 160c0 35 72 64 160 64 88 0 160-29 160-64l0-160c18 0 32-14 32-32l0-32c0-106-86-192-192-192z m96 320l0 16c0 9-7 16-16 16-9 0-16-7-16-16l0-16c0-9-7-16-16-16-9 0-16 7-16 16l0 80c0 9-7 16-16 16-9 0-16-7-16-16l0-64c0-9-7-16-16-16-9 0-16 7-16 16l0 16c0 18-14 32-32 32-18 0-32-14-32-32l0-32c-18 0-32-14-32-32l0-58c29 16 76 26 128 26 52 0 99-10 128-26l0 58c0 18-14 32-32 32z m-96-96c-54 0-100-13-119-32 19-19 65-32 119-32 54 0 100 13 119 32-19 19-65 32-119 32z m0-96c-88 0-160 29-160 64 0 0 0 0 0 0 0-88 72-160 160-160 88 0 160 72 160 160 0-35-72-64-160-64z"/>
    </symbol>
  
    <symbol id="icon-menu" viewBox="0 0 512 512">
      <path d="m410 230c7 0 13 3 18 8c5 5 7 11 7 18c0 7-2 13-7 18c-6 5-12 8-18 8c0 0-308 0-308 0c-6 0-12-3-18-8c-5-5-7-11-7-18c0-7 2-13 7-18c5-5 11-8 18-8c0 0 308 0 308 0m-308-51c-6 0-12-2-18-7c-5-6-7-12-7-18c0-7 2-13 7-18c5-5 11-8 18-8c0 0 308 0 308 0c7 0 13 3 18 8c5 5 7 11 7 18c0 6-2 12-7 18c-6 5-12 7-18 7c0 0-308 0-308 0m308 154c7 0 13 2 18 7c5 6 7 12 7 18c0 7-2 13-7 18c-6 5-12 8-18 8c0 0-308 0-308 0c-6 0-12-3-18-8c-5-5-7-11-7-18c0-6 2-12 7-18c5-5 11-7 18-7c0 0 308 0 308 0"/>
    </symbol>
  
    <symbol id="icon-monitor" viewBox="0 0 512 512">
      <path d="m461 31c14 0 26 5 36 15c10 10 15 22 15 36c0 0 0 282 0 282c0 14-5 27-15 39c-10 12-22 19-35 22c0 0-112 22-112 22c0 0 44 20 44 20c17 10 14 14-10 14c0 0-256 0-256 0c-33 0-28-9 16-26c0 0 19-8 19-8c0 0-113-22-113-22c-13-3-25-10-35-22c-10-12-15-25-15-39c0 0 0-282 0-282c0-14 5-26 15-36c11-10 23-15 36-15c0 0 410 0 410 0m0 330c0 0 0-284 0-284c0 0-410 0-410 0c0 0 0 284 0 284c0 0 410 0 410 0"/>
    </symbol>
  
    <symbol id="icon-tools" viewBox="0 0 512 512">
      <path d="m79 176c-3 3-4 7-6 11c-1 5-1 9-1 13c0 4 0 6-1 6c-1 1-4 3-9 8c-5 4-8 7-9 8c-6 5-11 4-15-2c0 0-36-39-36-39c-3-4-3-8 1-12c1-1 4-3 10-7c5-4 8-7 10-8c2-2 6-3 14-3c7 0 13-3 19-8c4-4 7-11 9-19c1-8 3-13 5-15c1 0 2-2 5-4c2-2 6-6 13-11c6-5 13-11 21-16c46-31 77-47 95-49c42 0 67 0 76 1c4 0 3 1-4 4c-41 18-67 31-78 39c-27 19-34 38-19 58c12 16 19 24 20 25c3 2 2 5-1 7c-1 1-7 6-20 18c-12 11-18 17-19 18c-5 2-8 3-9 2c-15-17-27-27-37-31c-9-4-21-2-34 6m147 13c0 0 209 244 209 244c7 8 6 14-1 20c0 0-24 21-24 21c-8 5-14 4-20-2c0 0-212-242-212-242c-2-2-2-6 0-10c0 0 37-32 37-32c4-2 8-2 11 1m283-103c6 36 3 64-8 85c-17 30-43 41-79 32c-19-4-36 1-51 16c0 0-42 40-42 40c0 0-35-40-35-40c0 0 35-36 35-36c8-8 13-17 16-27c2-10 3-21 3-33c0-12 0-22 2-30c5-19 28-38 72-57c4-2 7-2 9 1c2 3 3 6 1 8c-4 4-12 18-23 41c-5 3-7 9-6 18c0 8 7 18 20 27c20 14 36 10 49-11c2-4 7-11 14-21c6-10 10-16 11-17c1-3 4-5 7-5c3 1 5 4 5 9m-439 350c0 0 130-127 130-127c0 0 39 44 39 44c0 0-126 124-126 124c-7 7-13 8-20 2c0 0-23-23-23-23c-8-6-8-13 0-20"/>
    </symbol>
  
    <symbol id="icon-screen" viewBox="0 0 512 512">
      <path d="m0 43l0 298l208 0l-37 64l170 0l-37-64l208 0l0-298z m469 256l-426 0l0-214l426 0z m-106 128l-214 0c-11 0-21 9-21 21c0 12 10 21 21 21l214 0c11 0 21-9 21-21c0-12-10-21-21-21z"/>
    </symbol>
  
    <symbol id="icon-cube" viewBox="0 0 512 512">
      <path d="m258 11l-237 116l0 235l235 139l235-139l0-235z m-23 428l-171-101l0-142l171 84z m-161-287l185-94l185 94l-185 91z m374 186l-192 114l0-165l192-91z"/>
    </symbol>
  
    <symbol id="icon-screen" viewBox="0 0 512 512">
      <path d="m0 43l0 298l208 0l-37 64l170 0l-37-64l208 0l0-298z m469 256l-426 0l0-214l426 0z m-106 128l-214 0c-11 0-21 9-21 21c0 12 10 21 21 21l214 0c11 0 21-9 21-21c0-12-10-21-21-21z"/>
    </symbol>
  
    <symbol id="icon-crop" viewBox="0 0 512 512">
      <path d="m405 277l0-170l-170 0l0-86l-128 0l0 86l-86 0l0 128l86 0l0 170l170 0l0 86l128 0l0-86l86 0l0-128z m-192-128l150 0l0 150l-43 0l0-107l-107 0z m64 86l0 42l-42 0l0-42z m-149-43l-64 0l0-43l64 0z m235 256l-43 0l0-64l43 0z m85-85l-299 0l0-299l43 0l0 256l256 0z"/>
    </symbol>
  
    <symbol id="icon-book-open" viewBox="0 0 512 512">
      <path d="m212 200c-36-28-80-58-149-63z m0 64c-36-28-80-58-149-63z m-64 23c-24-11-51-20-85-22z m130-87l150-63c-69 5-113 35-150 63z m0 64l150-63c-69 5-113 35-150 63z m150 1c-34 2-62 11-85 22z m42-257c-93 0-178 43-222 78l-6 0c-43-35-128-78-222-78l-20 0l0 405l20 0c69 0 146 27 180 52c10 8 19 16 27 24l17 16l2 0l17-16c9-8 18-16 28-24c34-25 110-52 179-52l21 0l0-405z m-235 430c0-2-6-5-8-7c-36-27-120-55-184-60l0-320c85 7 155 48 185 78l6 7l1 0z m213-67c-64 5-148 33-184 60c-3 2-8 5-8 7l0-302l1 0l6-7c30-30 100-71 185-78z"/>
    </symbol>
  
    <symbol id="icon-home" viewBox="0 0 512 512">
      <path d="m448 163l0-142l-107 0l0 64l-85-64l-256 192l64 0l0 278l384 0l0-278l64 0z m-192 285l-85 0l0-171l85 0z m149 0l-128 0l0-192l-128 0l0 192l-42 0l0-256l149-107l149 107z m0-339l-21-14l0-31l21 0z m-21 190l-85 0l0 85l85 0z m-21 64l-43 0l0-43l43 0z m-128 0l-22 0l0 21l22 0z"/>
    </symbol>
  
    <symbol id="icon-device-desktop" viewBox="0 0 512 512">
      <path d="m480 32c-16 0-432 0-448 0-16 0-32 16-32 32 0 16 0 272 0 288 0 16 16 32 32 32 16 0 160 0 160 0 0 0-96 32-96 64 0 16 16 32 32 32 16 0 240 0 256 0 16 0 32-16 32-32 0-32-96-64-96-64 0 0 144 0 160 0 16 0 32-16 32-32 0-16 0-272 0-288 0-16-16-32-32-32z m0 320l-448 0 0-288 448 0z m-32-256l-96 0c-192 32-271 150-288 192l0 32 384 0z"/>
    </symbol>
  
    <symbol id="icon-paintcan" viewBox="0 0 512 512">
      <path d="m256 0c-106 0-192 86-192 192l0 32c0 18 14 32 32 32l0 160c0 35 72 64 160 64 88 0 160-29 160-64l0-160c18 0 32-14 32-32l0-32c0-106-86-192-192-192z m96 320l0 16c0 9-7 16-16 16-9 0-16-7-16-16l0-16c0-9-7-16-16-16-9 0-16 7-16 16l0 80c0 9-7 16-16 16-9 0-16-7-16-16l0-64c0-9-7-16-16-16-9 0-16 7-16 16l0 16c0 18-14 32-32 32-18 0-32-14-32-32l0-32c-18 0-32-14-32-32l0-58c29 16 76 26 128 26 52 0 99-10 128-26l0 58c0 18-14 32-32 32z m-96-96c-54 0-100-13-119-32 19-19 65-32 119-32 54 0 100 13 119 32-19 19-65 32-119 32z m0-96c-88 0-160 29-160 64 0 0 0 0 0 0 0-88 72-160 160-160 88 0 160 72 160 160 0-35-72-64-160-64z"/>
    </symbol>
  
    <symbol id="icon-three-bars" viewBox="0 0 512 512">
      <path d="m64 96l0 64 384 0 0-64z m0 192l384 0 0-64-384 0z m0 128l384 0 0-64-384 0z"/>
    </symbol>
  
    <symbol id="icon-person" viewBox="0 0 512 512">
      <path d="m352 96c0-53-43-96-96-96-53 0-96 43-96 96 0 53 43 96 96 96 53 0 96-43 96-96z m-96 64c-35 0-64-29-64-64 0-35 29-64 64-64 35 0 64 29 64 64 0 35-29 64-64 64z m64 32l-128 0c-35 0-64 29-64 64l0 64c0 35 29 64 64 64l0 128 128 0 0-128c35 0 64-29 64-64l0-64c0-35-29-64-64-64z m32 128c0 18-14 32-32 32l0-64-32 0 0 192-64 0 0-192-32 0 0 64c-18 0-32-14-32-32l0-64c0-18 14-32 32-32l128 0c18 0 32 14 32 32z"/>
    </symbol>
  
    <symbol id="icon-pencil" viewBox="0 0 512 512">
      <path d="m384 32l-64 64 96 96 64-64z m-352 352l0 96 96 0 256-256-96-96z m96 64l-64 0 0-64 32 0 0 32 32 0z"/>
    </symbol>
  
    <symbol id="icon-database" viewBox="0 0 512 512">
      <path d="m256 480c-106 0-192-29-192-64 0-19 0-40 0-64 0-6 3-11 7-16 21 28 96 48 185 48 89 0 164-20 185-48 4 5 7 10 7 16 0 19 0 38 0 64 0 35-86 64-192 64z m0-128c-106 0-192-29-192-64 0-19 0-40 0-64 0-3 1-7 3-10 1-2 2-4 4-6 21 28 96 48 185 48 89 0 164-20 185-48 2 2 3 4 4 6 2 3 3 7 3 10 0 19 0 38 0 64 0 35-86 64-192 64z m0-128c-106 0-192-29-192-64 0-10 0-21 0-32 0-10 0-21 0-32 0-35 86-64 192-64 106 0 192 29 192 64 0 10 0 21 0 32 0 10 0 20 0 32 0 35-86 64-192 64z m0-160c-71 0-128 14-128 32 0 18 57 32 128 32 71 0 128-14 128-32 0-18-57-32-128-32z"/>
    </symbol>
  
    <symbol id="icon-repo" viewBox="0 0 512 512">
      <path d="m224 128l-32 0 0 32 32 0z m0-64l-32 0 0 32 32 0z m192-64c-16 0-304 0-320 0-16 0-32 16-32 32 0 16 0 368 0 384 0 16 16 32 32 32 16 0 64 0 64 0l0 64 48-48 48 48 0-64c0 0 144 0 160 0 16 0 32-16 32-32 0-16 0-368 0-384 0-16-16-32-32-32z m0 400c0 8-7 16-16 16-8 0-144 0-144 0l0-32-96 0 0 32c0 0-39 0-48 0-8 0-16-8-16-16 0-7 0-48 0-48l320 0c0 0 0 40 0 48z m0-80l-256 0 0-288 257 0z m-192-64l-32 0 0 32 32 0z m0-64l-32 0 0 32 32 0z"/>
    </symbol>
  
    <symbol id="icon-gist" viewBox="0 0 512 512">
      <path d="m272 192l48 48-48 48 32 32 80-80-80-80z m-208-160l0 416 384 0 0-416z m352 384l-320 0 0-352 320 0z m-176-128l-48-48 48-48-32-32-80 80 80 80z"/>
    </symbol>
  
</svg>
